<svg width="135" height="27" viewBox="0 0 135 27" fill="none" xmlns="http://www.w3.org/2000/svg">
<path d="M1.4605 2.6H3.8285V25H1.4605V2.6ZM20.9088 25.192C18.6901 25.192 16.6741 24.7013 14.8608 23.72C13.0688 22.7173 11.6608 21.352 10.6368 19.624C9.63408 17.896 9.13275 15.9547 9.13275 13.8C9.13275 11.6453 9.63408 9.704 10.6368 7.976C11.6608 6.248 13.0688 4.89333 14.8608 3.912C16.6741 2.90933 18.6901 2.408 20.9088 2.408C23.1274 2.408 25.1221 2.89867 26.8928 3.88C28.6848 4.86133 30.0928 6.22667 31.1168 7.976C32.1408 9.704 32.6528 11.6453 32.6528 13.8C32.6528 15.9547 32.1408 17.9067 31.1168 19.656C30.0928 21.384 28.6848 22.7387 26.8928 23.72C25.1221 24.7013 23.1274 25.192 20.9088 25.192ZM20.9088 23.08C22.6794 23.08 24.2794 22.6853 25.7088 21.896C27.1381 21.0853 28.2581 19.976 29.0688 18.568C29.8794 17.1387 30.2848 15.5493 30.2848 13.8C30.2848 12.0507 29.8794 10.472 29.0688 9.064C28.2581 7.63467 27.1381 6.52533 25.7088 5.736C24.2794 4.92533 22.6794 4.52 20.9088 4.52C19.1381 4.52 17.5274 4.92533 16.0768 5.736C14.6474 6.52533 13.5168 7.63467 12.6848 9.064C11.8741 10.472 11.4688 12.0507 11.4688 13.8C11.4688 15.5493 11.8741 17.1387 12.6848 18.568C13.5168 19.976 14.6474 21.0853 16.0768 21.896C17.5274 22.6853 19.1381 23.08 20.9088 23.08ZM36.4825 15.336H44.8665V17.32H36.4825V15.336ZM53.75 4.648H45.878V2.6H63.99V4.648H56.118V25H53.75V4.648ZM69.0315 11.464C69.5648 10.3333 70.3542 9.48 71.3995 8.904C72.4662 8.328 73.7782 8.04 75.3355 8.04V10.248L74.7915 10.216C73.0208 10.216 71.6342 10.76 70.6315 11.848C69.6288 12.936 69.1275 14.4613 69.1275 16.424V25H66.8555V8.168H69.0315V11.464ZM85.306 8.04C87.5033 8.04 89.1887 8.59467 90.362 9.704C91.5353 10.792 92.122 12.4133 92.122 14.568V25H89.946V22.376C89.434 23.2507 88.6767 23.9333 87.674 24.424C86.6927 24.9147 85.5193 25.16 84.154 25.16C82.2767 25.16 80.7833 24.712 79.674 23.816C78.5647 22.92 78.01 21.736 78.01 20.264C78.01 18.8347 78.522 17.6827 79.546 16.808C80.5913 15.9333 82.2447 15.496 84.506 15.496H89.85V14.472C89.85 13.0213 89.4447 11.9227 88.634 11.176C87.8233 10.408 86.6393 10.024 85.082 10.024C84.0153 10.024 82.9913 10.2053 82.01 10.568C81.0287 10.9093 80.186 11.3893 79.482 12.008L78.458 10.312C79.3113 9.58667 80.3353 9.032 81.53 8.648C82.7247 8.24267 83.9833 8.04 85.306 8.04ZM84.506 23.368C85.786 23.368 86.8847 23.08 87.802 22.504C88.7193 21.9067 89.402 21.0533 89.85 19.944V17.192H84.57C81.69 17.192 80.25 18.1947 80.25 20.2C80.25 21.1813 80.6233 21.96 81.37 22.536C82.1167 23.0907 83.162 23.368 84.506 23.368ZM105.332 25.16C103.668 25.16 102.174 24.7973 100.852 24.072C99.5502 23.3467 98.5262 22.3333 97.7795 21.032C97.0328 19.7093 96.6595 18.2267 96.6595 16.584C96.6595 14.9413 97.0328 13.4693 97.7795 12.168C98.5262 10.8667 99.5502 9.85333 100.852 9.128C102.174 8.40267 103.668 8.04 105.332 8.04C106.782 8.04 108.073 8.328 109.204 8.904C110.356 9.45867 111.262 10.28 111.924 11.368L110.228 12.52C109.673 11.688 108.969 11.0693 108.116 10.664C107.262 10.2373 106.334 10.024 105.332 10.024C104.116 10.024 103.017 10.3013 102.036 10.856C101.076 11.3893 100.318 12.1573 99.7635 13.16C99.2302 14.1627 98.9635 15.304 98.9635 16.584C98.9635 17.8853 99.2302 19.0373 99.7635 20.04C100.318 21.0213 101.076 21.7893 102.036 22.344C103.017 22.8773 104.116 23.144 105.332 23.144C106.334 23.144 107.262 22.9413 108.116 22.536C108.969 22.1307 109.673 21.512 110.228 20.68L111.924 21.832C111.262 22.92 110.356 23.752 109.204 24.328C108.052 24.8827 106.761 25.16 105.332 25.16ZM122.377 16.552L118.409 20.2V25H116.137V1.256H118.409V17.352L128.457 8.168H131.273L124.073 15.048L131.945 25H129.161L122.377 16.552Z" fill="url(#paint0_linear)"/>
<path d="M1.4605 2.6V1.6H0.4605V2.6H1.4605ZM3.8285 2.6H4.8285V1.6H3.8285V2.6ZM3.8285 25V26H4.8285V25H3.8285ZM1.4605 25H0.4605V26H1.4605V25ZM1.4605 3.6H3.8285V1.6H1.4605V3.6ZM2.8285 2.6V25H4.8285V2.6H2.8285ZM3.8285 24H1.4605V26H3.8285V24ZM2.4605 25V2.6H0.4605V25H2.4605ZM14.8608 23.72L14.3724 24.5928L14.3848 24.5995L14.8608 23.72ZM10.6368 19.624L9.77178 20.1259L9.77646 20.1338L10.6368 19.624ZM10.6368 7.976L9.77642 7.46618L9.77181 7.47412L10.6368 7.976ZM14.8608 3.912L15.3411 4.7891L15.3446 4.78713L14.8608 3.912ZM26.8928 3.88L26.408 4.75466L26.4124 4.7571L26.8928 3.88ZM31.1168 7.976L30.2537 8.48119L30.2565 8.4858L31.1168 7.976ZM31.1168 19.656L31.9771 20.1658L31.9798 20.1612L31.1168 19.656ZM26.8928 23.72L26.4124 22.8429L26.408 22.8453L26.8928 23.72ZM25.7088 21.896L26.1922 22.7714L26.2021 22.7658L25.7088 21.896ZM29.0688 18.568L29.9354 19.067L29.9386 19.0613L29.0688 18.568ZM29.0688 9.064L28.1989 9.55735L28.2021 9.56296L29.0688 9.064ZM25.7088 5.736L25.2154 6.60589L25.2253 6.61138L25.7088 5.736ZM16.0768 5.736L16.5602 6.6114L16.5646 6.60894L16.0768 5.736ZM12.6848 9.064L11.8205 8.56092L11.8181 8.56503L12.6848 9.064ZM12.6848 18.568L11.8149 19.0613L11.8193 19.0691L11.8238 19.0767L12.6848 18.568ZM16.0768 21.896L15.5834 22.7658L15.5911 22.7702L15.5988 22.7744L16.0768 21.896ZM20.9088 24.192C18.8433 24.192 16.9928 23.7368 15.3367 22.8405L14.3848 24.5995C16.3553 25.6659 18.5369 26.192 20.9088 26.192V24.192ZM15.349 22.8473C13.7073 21.9287 12.4291 20.6871 11.497 19.1142L9.77646 20.1338C10.8924 22.0169 12.4302 23.506 14.3725 24.5927L15.349 22.8473ZM11.5017 19.1221C10.5944 17.5585 10.1328 15.7927 10.1328 13.8H8.13275C8.13275 16.1166 8.67377 18.2335 9.77181 20.1259L11.5017 19.1221ZM10.1328 13.8C10.1328 11.8073 10.5944 10.0415 11.5017 8.47788L9.77181 7.47412C8.67377 9.3665 8.13275 11.4834 8.13275 13.8H10.1328ZM11.497 8.4858C12.428 6.91485 13.7035 5.68584 15.3411 4.7891L14.3804 3.0349C12.434 4.10082 10.8935 5.58115 9.77646 7.4662L11.497 8.4858ZM15.3446 4.78713C16.9994 3.87214 18.847 3.408 20.9088 3.408V1.408C18.5332 1.408 16.3488 1.94652 14.3769 3.03687L15.3446 4.78713ZM20.9088 3.408C22.9745 3.408 24.7996 3.86325 26.408 4.75465L27.3775 3.00535C25.4446 1.93408 23.2803 1.408 20.9088 1.408V3.408ZM26.4124 4.7571C28.0469 5.65214 29.322 6.8895 30.2537 8.48118L31.9798 7.47082C30.8635 5.56383 29.3226 4.07052 27.3731 3.0029L26.4124 4.7571ZM30.2565 8.4858C31.1824 10.0482 31.6528 11.8112 31.6528 13.8H33.6528C33.6528 11.4795 33.0992 9.35976 31.977 7.4662L30.2565 8.4858ZM31.6528 13.8C31.6528 15.7887 31.1823 17.5644 30.2537 19.1508L31.9798 20.1612C33.0992 18.2489 33.6528 16.1206 33.6528 13.8H31.6528ZM30.2565 19.1462C29.3255 20.7171 28.05 21.9462 26.4124 22.8429L27.3731 24.5971C29.3195 23.5312 30.86 22.0509 31.977 20.1658L30.2565 19.1462ZM26.408 22.8453C24.7996 23.7367 22.9745 24.192 20.9088 24.192V26.192C23.2803 26.192 25.4446 25.6659 27.3775 24.5947L26.408 22.8453ZM20.9088 24.08C22.8338 24.08 24.6025 23.6493 26.1922 22.7714L25.2253 21.0206C23.9563 21.7214 22.525 22.08 20.9088 22.08V24.08ZM26.2021 22.7658C27.7849 21.8681 29.0346 20.6315 29.9354 19.067L28.2021 18.069C27.4816 19.3205 26.4913 20.3025 25.2154 21.0262L26.2021 22.7658ZM29.9386 19.0613C30.8401 17.4718 31.2848 15.7107 31.2848 13.8H29.2848C29.2848 15.388 28.9187 16.8055 28.1989 18.0747L29.9386 19.0613ZM31.2848 13.8C31.2848 11.8894 30.8401 10.1364 29.9354 8.56503L28.2021 9.56296C28.9187 10.8076 29.2848 12.2119 29.2848 13.8H31.2848ZM29.9386 8.57066C29.0375 6.98184 27.7842 5.73979 26.1922 4.86061L25.2253 6.61138C26.492 7.31088 27.4787 8.2875 28.1989 9.55734L29.9386 8.57066ZM26.2021 4.86616C24.6107 3.9636 22.8385 3.52 20.9088 3.52V5.52C22.5203 5.52 23.9481 5.88706 25.2154 6.60583L26.2021 4.86616ZM20.9088 3.52C18.9789 3.52 17.1985 3.96361 15.5889 4.86305L16.5646 6.60894C17.8564 5.88705 19.2973 5.52 20.9088 5.52V3.52ZM15.5933 4.86061C14.0036 5.73852 12.7422 6.97747 11.8205 8.56093L13.549 9.56707C14.2913 8.29186 15.2912 7.31214 16.5602 6.61138L15.5933 4.86061ZM11.8181 8.56503C10.9134 10.1364 10.4688 11.8894 10.4688 13.8H12.4688C12.4688 12.2119 12.8348 10.8076 13.5514 9.56296L11.8181 8.56503ZM10.4688 13.8C10.4688 15.7107 10.9134 17.4718 11.8149 19.0613L13.5546 18.0747C12.8348 16.8055 12.4688 15.388 12.4688 13.8H10.4688ZM11.8238 19.0767C12.7451 20.6359 14.0029 21.8694 15.5834 22.7658L16.5701 21.0262C15.292 20.3013 14.2884 19.3161 13.5457 18.0593L11.8238 19.0767ZM15.5988 22.7744C17.2067 23.6492 18.9835 24.08 20.9088 24.08V22.08C19.2927 22.08 17.8482 21.7214 16.5547 21.0176L15.5988 22.7744ZM36.4825 15.336V14.336H35.4825V15.336H36.4825ZM44.8665 15.336H45.8665V14.336H44.8665V15.336ZM44.8665 17.32V18.32H45.8665V17.32H44.8665ZM36.4825 17.32H35.4825V18.32H36.4825V17.32ZM36.4825 16.336H44.8665V14.336H36.4825V16.336ZM43.8665 15.336V17.32H45.8665V15.336H43.8665ZM44.8665 16.32H36.4825V18.32H44.8665V16.32ZM37.4825 17.32V15.336H35.4825V17.32H37.4825ZM53.75 4.648H54.75V3.648H53.75V4.648ZM45.878 4.648H44.878V5.648H45.878V4.648ZM45.878 2.6V1.6H44.878V2.6H45.878ZM63.99 2.6H64.99V1.6H63.99V2.6ZM63.99 4.648V5.648H64.99V4.648H63.99ZM56.118 4.648V3.648H55.118V4.648H56.118ZM56.118 25V26H57.118V25H56.118ZM53.75 25H52.75V26H53.75V25ZM53.75 3.648H45.878V5.648H53.75V3.648ZM46.878 4.648V2.6H44.878V4.648H46.878ZM45.878 3.6H63.99V1.6H45.878V3.6ZM62.99 2.6V4.648H64.99V2.6H62.99ZM63.99 3.648H56.118V5.648H63.99V3.648ZM55.118 4.648V25H57.118V4.648H55.118ZM56.118 24H53.75V26H56.118V24ZM54.75 25V4.648H52.75V25H54.75ZM69.0315 11.464H68.0315L69.9359 11.8906L69.0315 11.464ZM71.3995 8.904L70.9243 8.02406L70.9169 8.02816L71.3995 8.904ZM75.3355 8.04H76.3355V7.04H75.3355V8.04ZM75.3355 10.248L75.2768 11.2463L76.3355 11.3086V10.248H75.3355ZM74.7915 10.216L74.8502 9.21773L74.8209 9.216H74.7915V10.216ZM70.6315 11.848L71.3669 12.5257L71.3669 12.5257L70.6315 11.848ZM69.1275 25V26H70.1275V25H69.1275ZM66.8555 25H65.8555V26H66.8555V25ZM66.8555 8.168V7.168H65.8555V8.168H66.8555ZM69.0315 8.168H70.0315V7.168H69.0315V8.168ZM69.9359 11.8906C70.384 10.9407 71.0303 10.2492 71.8821 9.77984L70.9169 8.02816C69.6781 8.71078 68.7457 9.72593 68.1271 11.0374L69.9359 11.8906ZM71.8746 9.7839C72.7596 9.30602 73.8981 9.04 75.3355 9.04V7.04C73.6583 7.04 72.1727 7.34998 70.9244 8.02409L71.8746 9.7839ZM74.3355 8.04V10.248H76.3355V8.04H74.3355ZM75.3942 9.24972L74.8502 9.21773L74.7328 11.2143L75.2768 11.2463L75.3942 9.24972ZM74.7915 9.216C72.8011 9.216 71.1251 9.83676 69.8961 11.1703L71.3669 12.5257C72.1432 11.6832 73.2406 11.216 74.7915 11.216V9.216ZM69.8961 11.1703C68.6739 12.4965 68.1275 14.2941 68.1275 16.424H70.1275C70.1275 14.6286 70.5837 13.3755 71.3669 12.5257L69.8961 11.1703ZM68.1275 16.424V25H70.1275V16.424H68.1275ZM69.1275 24H66.8555V26H69.1275V24ZM67.8555 25V8.168H65.8555V25H67.8555ZM66.8555 9.168H69.0315V7.168H66.8555V9.168ZM68.0315 8.168V11.464H70.0315V8.168H68.0315ZM90.362 9.704L89.675 10.4307L89.6821 10.4373L90.362 9.704ZM92.122 25V26H93.122V25H92.122ZM89.946 25H88.946V26H89.946V25ZM89.946 22.376H90.946V18.6882L89.083 21.8708L89.946 22.376ZM87.674 24.424L87.2344 23.5258L87.2268 23.5296L87.674 24.424ZM79.674 23.816L80.3023 23.0381L79.674 23.816ZM79.546 16.808L78.9042 16.041L78.8965 16.0476L79.546 16.808ZM89.85 15.496V16.496H90.85V15.496H89.85ZM88.634 11.176L87.9462 11.902L87.9565 11.9115L88.634 11.176ZM82.01 10.568L82.3385 11.5125L82.3476 11.5093L82.3567 11.506L82.01 10.568ZM79.482 12.008L78.6259 12.5249L79.244 13.5485L80.1421 12.7592L79.482 12.008ZM78.458 10.312L77.8104 9.55006L77.1624 10.1008L77.6019 10.8289L78.458 10.312ZM81.53 8.648L81.836 9.60003L81.8437 9.59756L81.8513 9.59498L81.53 8.648ZM87.802 22.504L88.3338 23.3509L88.3408 23.3465L88.3477 23.342L87.802 22.504ZM89.85 19.944L90.7772 20.3185L90.85 20.1383V19.944H89.85ZM89.85 17.192H90.85V16.192H89.85V17.192ZM81.37 22.536L80.7592 23.3278L80.7664 23.3333L80.7737 23.3387L81.37 22.536ZM85.306 9.04C87.3416 9.04 88.7458 9.55213 89.675 10.4306L91.049 8.97735C89.6315 7.6372 87.6651 7.04 85.306 7.04V9.04ZM89.6821 10.4373C90.5878 11.2771 91.122 12.5912 91.122 14.568H93.122C93.122 12.2355 92.4829 10.3069 91.0419 8.97073L89.6821 10.4373ZM91.122 14.568V25H93.122V14.568H91.122ZM92.122 24H89.946V26H92.122V24ZM90.946 25V22.376H88.946V25H90.946ZM89.083 21.8708C88.6804 22.5586 88.079 23.1125 87.2344 23.5258L88.1136 25.3222C89.2743 24.7542 90.1876 23.9427 90.809 22.8812L89.083 21.8708ZM87.2268 23.5296C86.4141 23.9359 85.4012 24.16 84.154 24.16V26.16C85.6375 26.16 86.9712 25.8934 88.1212 25.3184L87.2268 23.5296ZM84.154 24.16C82.4325 24.16 81.1843 23.7504 80.3023 23.0381L79.0457 24.5939C80.3823 25.6736 82.1209 26.16 84.154 26.16V24.16ZM80.3023 23.0381C79.4367 22.3389 79.01 21.4452 79.01 20.264H77.01C77.01 22.0268 77.6926 23.5011 79.0457 24.5939L80.3023 23.0381ZM79.01 20.264C79.01 19.1067 79.409 18.2402 80.1955 17.5684L78.8965 16.0476C77.635 17.1252 77.01 18.5626 77.01 20.264H79.01ZM80.1877 17.5749C80.9676 16.9224 82.3364 16.496 84.506 16.496V14.496C82.153 14.496 80.215 14.9443 78.9043 16.0411L80.1877 17.5749ZM84.506 16.496H89.85V14.496H84.506V16.496ZM90.85 15.496V14.472H88.85V15.496H90.85ZM90.85 14.472C90.85 12.8348 90.3873 11.4314 89.3115 10.4405L87.9565 11.9115C88.502 12.4139 88.85 13.2079 88.85 14.472H90.85ZM89.3217 10.45C88.2627 9.44672 86.7934 9.024 85.082 9.024V11.024C86.4852 11.024 87.384 11.3693 87.9463 11.902L89.3217 10.45ZM85.082 9.024C83.8994 9.024 82.7578 9.22552 81.6634 9.63L82.3567 11.506C83.2248 11.1851 84.1313 11.024 85.082 11.024V9.024ZM81.6815 9.6235C80.5914 10.0027 79.6329 10.5441 78.8219 11.2568L80.1421 12.7592C80.7391 12.2345 81.4659 11.816 82.3385 11.5125L81.6815 9.6235ZM80.3381 11.4911L79.3141 9.79513L77.6019 10.8289L78.6259 12.5249L80.3381 11.4911ZM79.1056 11.0739C79.8473 10.4435 80.7515 9.9486 81.836 9.60003L81.224 7.69597C79.9191 8.11539 78.7753 8.72982 77.8104 9.55006L79.1056 11.0739ZM81.8513 9.59498C82.9375 9.22643 84.0873 9.04 85.306 9.04V7.04C83.8794 7.04 82.5118 7.2589 81.2087 7.70102L81.8513 9.59498ZM84.506 24.368C85.9395 24.368 87.2301 24.0439 88.3338 23.3509L87.2702 21.6571C86.5392 22.1161 85.6325 22.368 84.506 22.368V24.368ZM88.3477 23.342C89.4527 22.6225 90.26 21.5992 90.7772 20.3185L88.9228 19.5695C88.544 20.5074 87.986 21.1909 87.2563 21.666L88.3477 23.342ZM90.85 19.944V17.192H88.85V19.944H90.85ZM89.85 16.192H84.57V18.192H89.85V16.192ZM84.57 16.192C83.0447 16.192 81.7228 16.4519 80.7586 17.1233C79.7285 17.8405 79.25 18.9242 79.25 20.2H81.25C81.25 19.4704 81.4915 19.0501 81.9014 18.7647C82.3772 18.4334 83.2153 18.192 84.57 18.192V16.192ZM79.25 20.2C79.25 21.4766 79.7557 22.5537 80.7592 23.3278L81.9808 21.7442C81.491 21.3663 81.25 20.886 81.25 20.2H79.25ZM80.7737 23.3387C81.7544 24.0672 83.0393 24.368 84.506 24.368V22.368C83.2847 22.368 82.479 22.1141 81.9663 21.7333L80.7737 23.3387ZM100.852 24.072L100.365 24.9455L100.371 24.9488L100.852 24.072ZM97.7795 21.032L96.9087 21.5236L96.9121 21.5297L97.7795 21.032ZM97.7795 12.168L96.9121 11.6703L96.9121 11.6703L97.7795 12.168ZM100.852 9.128L100.371 8.25117L100.365 8.25452L100.852 9.128ZM109.204 8.904L108.75 9.79504L108.76 9.80013L108.77 9.805L109.204 8.904ZM111.924 11.368L112.485 12.1952L113.272 11.661L112.778 10.8486L111.924 11.368ZM110.228 12.52L109.395 13.0747L109.955 13.914L110.789 13.3472L110.228 12.52ZM108.116 10.664L107.668 11.5584L107.677 11.5629L107.686 11.5673L108.116 10.664ZM102.036 10.856L102.521 11.7302L102.528 11.7266L102.036 10.856ZM99.7635 13.16L98.8885 12.6759L98.8845 12.6831L98.8806 12.6904L99.7635 13.16ZM99.7635 20.04L98.8806 20.5096L98.8866 20.5209L98.8929 20.5321L99.7635 20.04ZM102.036 22.344L101.535 23.2099L101.547 23.2164L101.558 23.2226L102.036 22.344ZM108.116 22.536L107.686 21.6327L107.686 21.6327L108.116 22.536ZM110.228 20.68L110.789 19.8528L109.955 19.286L109.395 20.1253L110.228 20.68ZM111.924 21.832L112.778 22.3514L113.272 21.539L112.485 21.0048L111.924 21.832ZM109.204 24.328L109.637 25.229L109.644 25.2258L109.651 25.2224L109.204 24.328ZM105.332 24.16C103.818 24.16 102.493 23.8316 101.332 23.1952L100.371 24.9488C101.855 25.7631 103.517 26.16 105.332 26.16V24.16ZM101.338 23.1985C100.197 22.5622 99.3038 21.6793 98.6469 20.5343L96.9121 21.5297C97.7485 22.9873 98.9035 24.1311 100.365 24.9455L101.338 23.1985ZM98.6503 20.5404C97.9952 19.3799 97.6595 18.0689 97.6595 16.584H95.6595C95.6595 18.3845 96.0705 20.0388 96.9087 21.5236L98.6503 20.5404ZM97.6595 16.584C97.6595 15.0989 97.9952 13.8014 98.6469 12.6657L96.9121 11.6703C96.0705 13.1372 95.6595 14.7837 95.6595 16.584H97.6595ZM98.6469 12.6657C99.3038 11.5207 100.197 10.6378 101.338 10.0015L100.365 8.25452C98.9035 9.06891 97.7485 10.2127 96.9121 11.6703L98.6469 12.6657ZM101.332 10.0048C102.493 9.3684 103.818 9.04 105.332 9.04V7.04C103.517 7.04 101.855 7.43693 100.371 8.25119L101.332 10.0048ZM105.332 9.04C106.647 9.04 107.778 9.30031 108.75 9.79504L109.657 8.01296C108.367 7.35569 106.917 7.04 105.332 7.04V9.04ZM108.77 9.805C109.748 10.2762 110.508 10.9653 111.069 11.8874L112.778 10.8486C112.016 9.59466 110.963 8.64115 109.637 8.003L108.77 9.805ZM111.362 10.5408L109.666 11.6928L110.789 13.3472L112.485 12.1952L111.362 10.5408ZM111.06 11.9653C110.411 10.992 109.571 10.2483 108.545 9.76072L107.686 11.5673C108.367 11.8904 108.935 12.384 109.395 13.0747L111.06 11.9653ZM108.563 9.76957C107.563 9.26993 106.481 9.024 105.332 9.024V11.024C106.187 11.024 106.961 11.2047 107.668 11.5584L108.563 9.76957ZM105.332 9.024C103.957 9.024 102.687 9.33929 101.543 9.98544L102.528 11.7266C103.347 11.2634 104.274 11.024 105.332 11.024V9.024ZM101.55 9.98184C100.419 10.6102 99.5297 11.5168 98.8885 12.6759L100.639 13.6441C101.107 12.7979 101.732 12.1684 102.521 11.7302L101.55 9.98184ZM98.8806 12.6904C98.2611 13.8552 97.9635 15.1613 97.9635 16.584H99.9635C99.9635 15.4467 100.199 14.4702 100.646 13.6296L98.8806 12.6904ZM97.9635 16.584C97.9635 18.025 98.2598 19.3425 98.8806 20.5096L100.646 19.5704C100.201 18.7322 99.9635 17.7457 99.9635 16.584H97.9635ZM98.8929 20.5321C99.5339 21.6661 100.418 22.5643 101.535 23.2099L102.536 21.4781C101.733 21.0143 101.102 20.3766 100.634 19.5479L98.8929 20.5321ZM101.558 23.2226C102.699 23.8426 103.964 24.144 105.332 24.144V22.144C104.267 22.144 103.335 21.9121 102.513 21.4654L101.558 23.2226ZM105.332 24.144C106.473 24.144 107.549 23.9122 108.545 23.4393L107.686 21.6327C106.975 21.9705 106.195 22.144 105.332 22.144V24.144ZM108.545 23.4393C109.571 22.9517 110.411 22.208 111.06 21.2347L109.395 20.1253C108.935 20.816 108.367 21.3096 107.686 21.6327L108.545 23.4393ZM109.666 21.5072L111.362 22.6592L112.485 21.0048L110.789 19.8528L109.666 21.5072ZM111.069 21.3126C110.507 22.2378 109.742 22.9407 108.756 23.4336L109.651 25.2224C110.969 24.5633 112.018 23.6022 112.778 22.3514L111.069 21.3126ZM108.77 23.427C107.768 23.9092 106.628 24.16 105.332 24.16V26.16C106.893 26.16 108.335 25.8562 109.637 25.229L108.77 23.427ZM122.377 16.552L123.156 15.9259L122.487 15.0922L121.7 15.8158L122.377 16.552ZM118.409 20.2L117.732 19.4638L117.409 19.761V20.2H118.409ZM118.409 25V26H119.409V25H118.409ZM116.137 25H115.137V26H116.137V25ZM116.137 1.256V0.255999H115.137V1.256H116.137ZM118.409 1.256H119.409V0.255999H118.409V1.256ZM118.409 17.352H117.409V19.6208L119.083 18.0901L118.409 17.352ZM128.457 8.168V7.168H128.069L127.782 7.42987L128.457 8.168ZM131.273 8.168L131.964 8.89099L133.767 7.168H131.273V8.168ZM124.073 15.048L123.382 14.325L122.723 14.9541L123.288 15.6684L124.073 15.048ZM131.945 25V26H134.011L132.729 24.3796L131.945 25ZM129.161 25L128.381 25.6261L128.681 26H129.161V25ZM121.7 15.8158L117.732 19.4638L119.086 20.9362L123.054 17.2882L121.7 15.8158ZM117.409 20.2V25H119.409V20.2H117.409ZM118.409 24H116.137V26H118.409V24ZM117.137 25V1.256H115.137V25H117.137ZM116.137 2.256H118.409V0.255999H116.137V2.256ZM117.409 1.256V17.352H119.409V1.256H117.409ZM119.083 18.0901L129.131 8.90613L127.782 7.42987L117.734 16.6139L119.083 18.0901ZM128.457 9.168H131.273V7.168H128.457V9.168ZM130.582 7.44501L123.382 14.325L124.764 15.771L131.964 8.89099L130.582 7.44501ZM123.288 15.6684L131.16 25.6204L132.729 24.3796L124.857 14.4276L123.288 15.6684ZM131.945 24H129.161V26H131.945V24ZM129.94 24.3739L123.156 15.9259L121.597 17.1781L128.381 25.6261L129.94 24.3739Z" fill="#DE9366"/>
<defs>
<linearGradient id="paint0_linear" x1="65" y1="-6" x2="65" y2="31" gradientUnits="userSpaceOnUse">
<stop stop-color="#DE9366"/>
<stop offset="1" stop-color="#D97134" stop-opacity="0"/>
</linearGradient>
</defs>
</svg>
