<svg width="23" height="25" viewBox="0 0 23 25" fill="none" xmlns="http://www.w3.org/2000/svg">
<g clip-path="url(#clip0)">
<path d="M11.7269 11.28V22.72H14.5669V24H7.42688V22.72H10.2669V11.28H7.42688V10H14.5669V11.28H11.7269Z" fill="#DE9366"/>
<path d="M21.502 19.925V21H0.501953V19.925H6.22695C4.86029 19.1417 3.77695 18.0667 2.97695 16.7C2.19362 15.3333 1.80195 13.8083 1.80195 12.125C1.80195 9.55833 2.68529 7.41667 4.45195 5.7C6.21862 3.96667 8.40195 3.1 11.002 3.1C13.602 3.1 15.7853 3.96667 17.552 5.7C19.3186 7.41667 20.202 9.55833 20.202 12.125C20.202 13.7917 19.802 15.3167 19.002 16.7C18.2186 18.0833 17.1436 19.1583 15.777 19.925H21.502ZM15.377 7.65C14.1936 6.41667 12.7353 5.8 11.002 5.8C9.26862 5.8 7.80195 6.41667 6.60195 7.65C5.41862 8.88333 4.82695 10.3833 4.82695 12.15C4.82695 13.9 5.41862 15.3917 6.60195 16.625C7.80195 17.8583 9.26862 18.475 11.002 18.475C12.7353 18.475 14.1936 17.8583 15.377 16.625C16.577 15.3917 17.177 13.9 17.177 12.15C17.177 10.3833 16.577 8.88333 15.377 7.65Z" fill="#DE9366"/>
</g>
<defs>
<clipPath id="clip0">
<rect width="22.3" height="24.7" fill="white"/>
</clipPath>
</defs>
</svg>
