<svg width="58" height="49" viewBox="0 0 58 49" fill="none" xmlns="http://www.w3.org/2000/svg">
<path d="M57.5653 46.076V49H0.445312V46.076H16.0173C12.3 43.9453 9.35331 41.0213 7.17731 37.304C5.04665 33.5867 3.98131 29.4387 3.98131 24.86C3.98131 17.8787 6.38398 12.0533 11.1893 7.384C15.9946 2.66933 21.9333 0.311999 29.0053 0.311999C36.0773 0.311999 42.016 2.66933 46.8213 7.384C51.6266 12.0533 54.0293 17.8787 54.0293 24.86C54.0293 29.3933 52.9413 33.5413 50.7653 37.304C48.6346 41.0667 45.7106 43.9907 41.9933 46.076H57.5653ZM40.9053 12.688C37.6866 9.33333 33.72 7.656 29.0053 7.656C24.2906 7.656 20.3013 9.33333 17.0373 12.688C13.8186 16.0427 12.2093 20.1227 12.2093 24.928C12.2093 29.688 13.8186 33.7453 17.0373 37.1C20.3013 40.4547 24.2906 42.132 29.0053 42.132C33.72 42.132 37.6866 40.4547 40.9053 37.1C44.1693 33.7453 45.8013 29.688 45.8013 24.928C45.8013 20.1227 44.1693 16.0427 40.9053 12.688Z" fill="url(#paint0_radial)"/>
<defs>
<radialGradient id="paint0_radial" cx="0" cy="0" r="1" gradientUnits="userSpaceOnUse" gradientTransform="translate(29 25) rotate(90) scale(32 42)">
<stop stop-color="#DE9366"/>
<stop offset="1" stop-color="#D97134" stop-opacity="0.43"/>
</radialGradient>
</defs>
</svg>
